<svg width="14" height="14" viewBox="0 0 14 14" fill="none" xmlns="http://www.w3.org/2000/svg">
<g id="arrow-right">
<path id="Vector" d="M13.4585 7.21782L13.4589 7.2167C13.4996 7.11381 13.5106 6.99935 13.4895 6.88871C13.4685 6.77815 13.4172 6.67961 13.3454 6.60443L13.3452 6.60432L9.345 2.41504L9.33901 2.40876L9.33906 2.40871C9.29171 2.35736 9.23633 2.31776 9.17687 2.29101C9.11746 2.26429 9.05449 2.25059 8.99142 2.25002C8.92835 2.24944 8.86523 2.26199 8.80551 2.28758C8.74572 2.3132 8.68983 2.3517 8.64175 2.40205C8.59361 2.45246 8.55437 2.51367 8.52741 2.58268C8.50044 2.65172 8.48661 2.72644 8.48724 2.80227C8.48787 2.87811 8.50293 2.9525 8.531 3.02094C8.55906 3.08935 8.59924 3.14971 8.64809 3.19912L8.6542 3.20529L8.65414 3.20535L10.9483 5.6079L11.7554 6.4532H10.5867H1.00006C0.875083 6.4532 0.750279 6.50498 0.65453 6.60526M13.4585 7.21782L0.65453 6.60526M13.4585 7.21782C13.4318 7.28584 13.3931 7.34625 13.3458 7.39617C13.3457 7.3963 13.3455 7.39643 13.3454 7.39656L9.34599 11.585L9.34594 11.5849L9.34006 11.5913C9.29271 11.6426 9.23734 11.6822 9.17787 11.709C9.11846 11.7357 9.05549 11.7494 8.99242 11.75C8.92935 11.7506 8.86623 11.738 8.80651 11.7124C8.74673 11.6868 8.69083 11.6483 8.64275 11.5979C8.59461 11.5475 8.55537 11.4863 8.52841 11.4173C8.50144 11.3483 8.48761 11.2736 8.48824 11.1977C8.48887 11.1219 8.50393 11.0475 8.532 10.9791C8.56006 10.9107 8.60024 10.8503 8.64909 10.8009L8.64914 10.8009L8.65514 10.7947L10.9483 8.39315L11.7554 7.54784H10.5867H1.00006C0.875084 7.54784 0.750279 7.49606 0.65453 7.39579C0.558031 7.29473 0.5 7.15294 0.5 7.00052C0.5 6.84811 0.558031 6.70632 0.65453 6.60526M13.4585 7.21782L0.292912 6.25996L0.65453 6.60526M9.70661 2.06973C9.61436 1.9697 9.50401 1.88992 9.382 1.83503C9.25999 1.78014 9.12876 1.75125 8.99597 1.75004C8.86318 1.74883 8.73149 1.77533 8.60859 1.82799C8.48569 1.88065 8.37403 1.95842 8.28013 2.05675L9.70661 2.06973Z" fill="white" stroke="white"/>
</g>
</svg>
